<svg aria-hidden="true" style="position:absolute;width:20;height:20" xmlns="http://www.w3.org/2000/svg" overflow="hidden"><defs>
<symbol id="icon-facebook" viewBox="0 0 32 32"><path d="M19 6h5V0h-5c-3.86 0-7 3.14-7 7v3H8v6h4v16h6V16h5l1-6h-6V7c0-.542.458-1 1-1z"/></symbol>
<symbol id="icon-instagram" viewBox="0 0 32 32"><path d="M16 2.881c4.275 0 4.781.019 6.462.094 1.563.069 2.406.331 2.969.55a4.952 4.952 0 011.837 1.194 5.015 5.015 0 011.2 1.838c.219.563.481 1.412.55 2.969.075 1.688.094 2.194.094 6.463s-.019 4.781-.094 6.463c-.069 1.563-.331 2.406-.55 2.969a4.94 4.94 0 01-1.194 1.837 5.02 5.02 0 01-1.837 1.2c-.563.219-1.413.481-2.969.55-1.688.075-2.194.094-6.463.094s-4.781-.019-6.463-.094c-1.563-.069-2.406-.331-2.969-.55a4.952 4.952 0 01-1.838-1.194 5.02 5.02 0 01-1.2-1.837c-.219-.563-.481-1.413-.55-2.969-.075-1.688-.094-2.194-.094-6.463s.019-4.781.094-6.463c.069-1.563.331-2.406.55-2.969a4.964 4.964 0 011.194-1.838 5.015 5.015 0 011.838-1.2c.563-.219 1.412-.481 2.969-.55 1.681-.075 2.188-.094 6.463-.094zM16 0c-4.344 0-4.887.019-6.594.094-1.7.075-2.869.35-3.881.744-1.056.412-1.95.956-2.837 1.85a7.833 7.833 0 00-1.85 2.831C.444 6.538.169 7.7.094 9.4.019 11.113 0 11.656 0 16s.019 4.887.094 6.594c.075 1.7.35 2.869.744 3.881.413 1.056.956 1.95 1.85 2.837a7.82 7.82 0 002.831 1.844c1.019.394 2.181.669 3.881.744 1.706.075 2.25.094 6.594.094s4.888-.019 6.594-.094c1.7-.075 2.869-.35 3.881-.744 1.05-.406 1.944-.956 2.831-1.844s1.438-1.781 1.844-2.831c.394-1.019.669-2.181.744-3.881.075-1.706.094-2.25.094-6.594s-.019-4.887-.094-6.594c-.075-1.7-.35-2.869-.744-3.881a7.506 7.506 0 00-1.831-2.844A7.82 7.82 0 0026.482.843C25.463.449 24.301.174 22.601.099c-1.712-.081-2.256-.1-6.6-.1z"/><path d="M16 7.781c-4.537 0-8.219 3.681-8.219 8.219s3.681 8.219 8.219 8.219 8.219-3.681 8.219-8.219A8.221 8.221 0 0016 7.781zm0 13.55a5.331 5.331 0 110-10.663 5.331 5.331 0 010 10.663zM26.462 7.456a1.919 1.919 0 11-3.838 0 1.919 1.919 0 013.838 0z"/></symbol>
<symbol id="icon-twitter" viewBox="0 0 32 32"><path d="M32 7.075a12.941 12.941 0 01-3.769 1.031 6.601 6.601 0 002.887-3.631 13.21 13.21 0 01-4.169 1.594A6.565 6.565 0 0022.155 4a6.563 6.563 0 00-6.563 6.563c0 .512.056 1.012.169 1.494A18.635 18.635 0 012.23 5.195a6.56 6.56 0 00-.887 3.3 6.557 6.557 0 002.919 5.463 6.565 6.565 0 01-2.975-.819v.081a6.565 6.565 0 005.269 6.437 6.574 6.574 0 01-2.968.112 6.588 6.588 0 006.131 4.563 13.17 13.17 0 01-9.725 2.719 18.568 18.568 0 0010.069 2.95c12.075 0 18.681-10.006 18.681-18.681 0-.287-.006-.569-.019-.85A13.216 13.216 0 0032 7.076z"/></symbol>
<symbol id="icon-linkedin-1-1" viewBox="0 0 32 32"><path d="M31.992 32v-0.001h0.008v-11.736c0-5.741-1.236-10.164-7.948-10.164-3.227 0-5.392 1.771-6.276 3.449h-0.093v-2.913h-6.364v21.364h6.627v-10.579c0-2.785 0.528-5.479 3.977-5.479 3.399 0 3.449 3.179 3.449 5.657v10.401h6.62z"></path><path d="M0.528 10.636h6.635v21.364h-6.635v-21.364z"></path><path d="M3.843 0c-2.121 0-3.843 1.721-3.843 3.843s1.721 3.879 3.843 3.879c2.121 0 3.843-1.757 3.843-3.879-0.001-2.121-1.723-3.843-3.843-3.843v0z"></path></symbol>
<symbol id="phone" viewBox="0 0 10 16"><path d="M8.5 0H1.5C0.672848 0 0 0.672848 0 1.5V14.5C0 15.3272 0.672848 16 1.5 16H8.5C9.32715 16 10 15.3272 10 14.5V1.5C10 0.672848 9.32715 0 8.5 0ZM1.5 1H8.5C8.77588 1 9 1.22412 9 1.5V12H1V1.5C1 1.22412 1.22412 1 1.5 1ZM8.5 15H1.5C1.22412 15 1 14.7759 1 14.5V13H9V14.5C9 14.7759 8.77588 15 8.5 15Z"/><path d="M2.35355 13.7389C2.54882 13.9213 2.54882 14.2169 2.35355 14.3992C2.15828 14.5816 1.84172 14.5816 1.64645 14.3992C1.45118 14.2169 1.45118 13.9213 1.64645 13.7389C1.84172 13.5566 2.15828 13.5566 2.35355 13.7389Z"/></symbol>
<symbol id="mail" viewBox="0 0 16 12"><path d="M14.5 0H1.50001C0.672854 0 0 0.672853 0 1.50001V10.5C0 11.3271 0.672854 12 1.50001 12H14.5C15.3271 12 16 11.3271 16 10.5V1.50001C16 0.672853 15.3271 0 14.5 0ZM14.5 0.999994C14.5679 0.999994 14.6325 1.01409 14.6916 1.0387L8 6.83838L1.30833 1.0387C1.36742 1.01412 1.43204 0.999994 1.49998 0.999994H14.5ZM14.5 11H1.50001C1.22414 11 0.999996 10.7759 0.999996 10.5V2.09521L7.67236 7.87792C7.76661 7.95944 7.8833 7.99999 8 7.99999C8.1167 7.99999 8.23339 7.95948 8.32764 7.87792L15 2.09521V10.5C15 10.7759 14.7759 11 14.5 11Z"/></symbol>
<symbol id="logo1" viewBox="0 0 45 50"><path d="M6 0L13.3076 6.91796H33.6924V26.2158L41 33.1338V0H6Z"/><path d="M0 6.62646V38.8137H34V26.0195L13.5231 6.63443L0 6.62646ZM27.5231 34.1055H5.38008V12.4579H6.9453V32.6397H27.5231V34.1055Z"/><path d="M9.79102 44.7837L10.6089 43.0991H11.2925L10.1011 45.3452V46.6538H9.48096V45.3452L8.28711 43.0991H8.97314L9.79102 44.7837ZM13.3018 45.8262H11.9248L11.6367 46.6538H10.9946L12.3374 43.0991H12.8916L14.2368 46.6538H13.5923L13.3018 45.8262ZM12.0981 45.3281H13.1284L12.6133 43.8535L12.0981 45.3281ZM15.7358 45.6943C15.7358 45.5299 15.7806 45.3794 15.8701 45.2427C15.9596 45.1043 16.1362 44.9408 16.3999 44.752C16.2616 44.5778 16.1647 44.4297 16.1094 44.3076C16.0557 44.1855 16.0288 44.0675 16.0288 43.9536C16.0288 43.6753 16.1134 43.4556 16.2827 43.2944C16.452 43.1317 16.6799 43.0503 16.9663 43.0503C17.2251 43.0503 17.4367 43.1268 17.6011 43.2798C17.7671 43.4312 17.8501 43.6191 17.8501 43.8438C17.8501 43.9919 17.8127 44.1286 17.7378 44.2539C17.6629 44.3776 17.54 44.5013 17.3691 44.625L17.1274 44.8008L17.8135 45.6113C17.9128 45.416 17.9624 45.1987 17.9624 44.9595H18.4775C18.4775 45.3973 18.375 45.7562 18.1699 46.0361L18.6924 46.6538H18.0039L17.8037 46.417C17.5498 46.6074 17.2471 46.7026 16.8955 46.7026C16.5439 46.7026 16.2624 46.6099 16.0508 46.4243C15.8408 46.2371 15.7358 45.9938 15.7358 45.6943ZM16.9126 46.229C17.1128 46.229 17.3 46.1623 17.4741 46.0288L16.6978 45.1133L16.6221 45.167C16.4268 45.3151 16.3291 45.4844 16.3291 45.6748C16.3291 45.8392 16.382 45.9727 16.4878 46.0752C16.5936 46.1777 16.7352 46.229 16.9126 46.229ZM16.5854 43.939C16.5854 44.0757 16.6693 44.2474 16.8369 44.4541L17.1079 44.2686L17.1836 44.2075C17.2845 44.118 17.335 44.0033 17.335 43.8633C17.335 43.7705 17.3 43.6916 17.23 43.6265C17.16 43.5597 17.0713 43.5264 16.9639 43.5264C16.8483 43.5264 16.7563 43.5654 16.688 43.6436C16.6196 43.7217 16.5854 43.8201 16.5854 43.939ZM23.043 45.4966C23.0072 45.8758 22.8672 46.172 22.623 46.3853C22.3789 46.5968 22.0542 46.7026 21.6489 46.7026C21.3657 46.7026 21.1159 46.6359 20.8994 46.5024C20.6846 46.3674 20.5186 46.1761 20.4014 45.9287C20.2842 45.6813 20.2231 45.394 20.2183 45.0669V44.7349C20.2183 44.3996 20.2777 44.1042 20.3965 43.8486C20.5153 43.5931 20.6854 43.3962 20.9067 43.2578C21.1297 43.1195 21.3869 43.0503 21.6782 43.0503C22.0705 43.0503 22.3862 43.1569 22.6255 43.3701C22.8647 43.5833 23.0039 43.8844 23.043 44.2734H22.4277C22.3984 44.0179 22.3236 43.834 22.2031 43.7217C22.0843 43.6077 21.9093 43.5508 21.6782 43.5508C21.4097 43.5508 21.203 43.6493 21.0581 43.8462C20.9149 44.0415 20.8416 44.3288 20.8384 44.708V45.0229C20.8384 45.4071 20.9067 45.7 21.0435 45.9019C21.1818 46.1037 21.3836 46.2046 21.6489 46.2046C21.8914 46.2046 22.0737 46.1501 22.1958 46.041C22.3179 45.932 22.3952 45.7505 22.4277 45.4966H23.043ZM26.4341 44.9692C26.4341 45.3175 26.3739 45.6235 26.2534 45.8872C26.133 46.1493 25.9604 46.3511 25.7358 46.4927C25.5129 46.6326 25.2557 46.7026 24.9644 46.7026C24.6763 46.7026 24.4191 46.6326 24.1929 46.4927C23.9683 46.3511 23.7941 46.1501 23.6704 45.8896C23.5483 45.6292 23.4865 45.3289 23.4849 44.9888V44.7886C23.4849 44.4419 23.5459 44.1359 23.668 43.8706C23.7917 43.6053 23.965 43.4027 24.188 43.2627C24.4126 43.1211 24.6698 43.0503 24.9595 43.0503C25.2492 43.0503 25.5055 43.1203 25.7285 43.2603C25.9531 43.3986 26.1265 43.5988 26.2485 43.8608C26.3706 44.1213 26.4325 44.4248 26.4341 44.7715V44.9692ZM25.8164 44.7837C25.8164 44.3898 25.7415 44.0879 25.5918 43.8779C25.4437 43.668 25.2329 43.563 24.9595 43.563C24.6925 43.563 24.4834 43.668 24.332 43.8779C24.1823 44.0863 24.1058 44.3817 24.1025 44.7642V44.9692C24.1025 45.3599 24.1782 45.6618 24.3296 45.875C24.4826 46.0882 24.6942 46.1948 24.9644 46.1948C25.2378 46.1948 25.4478 46.0907 25.5942 45.8823C25.7424 45.674 25.8164 45.3696 25.8164 44.9692V44.7837Z"/></symbol>
<symbol id="logo2" viewBox="0 0 40 52"><path d="M16.977 2.935h.137c.253 0 .526.025.796.048 1.193.084 2.377.263 3.542.534V.654A21.09 21.09 0 0017.797.07 29.24 29.24 0 0016.319 0h-.427c-2.475.01-4.94.327-7.336.946-2.73.68-5.351 1.747-7.784 3.166v28.397a31.634 31.634 0 017.42-2.892 32.36 32.36 0 016.227-.956h.084c.352-.018.703-.028 1.065-.03v-2.91a34.329 34.329 0 00-8.095 1.076c-.98.255-1.925.53-2.813.834l-1.012.344V5.833l.432-.208a28.275 28.275 0 0110.517-2.683.627.627 0 01.09 0c.403-.02.808-.03 1.205-.03h.455c.21.005.42.01.63.023z"/><path d="M24.11 5.933a25.915 25.915 0 01-4.234-.344c-.45-.076-.893-.168-1.323-.267v28.072c1.82.45 3.69.67 5.565.656a29.943 29.943 0 007.337-.944 29.815 29.815 0 007.786-3.166V2.05a31.775 31.775 0 01-7.417 2.893c-2.52.648-5.112.98-7.713.99zm11.225.485l1.012-.34v22.148l-.433.209a27.761 27.761 0 01-5.173 1.859c-2.163.56-4.386.847-6.62.857-.668 0-1.33-.028-1.973-.084l-.693-.061V8.228l.807.054c.587.038 1.194.056 1.854.056a34.263 34.263 0 008.406-1.078c.944-.25 1.882-.529 2.813-.842zM2.737 42.212a1.492 1.492 0 00-1.126-.455 1.673 1.673 0 00-.65.122 1.463 1.463 0 00-.832.842c-.08.2-.119.413-.116.628v3.794c-.01.267.042.533.149.778.09.195.219.368.38.509.151.127.329.22.52.27.185.051.376.078.567.078.211.002.42-.043.612-.132a1.599 1.599 0 00.96-1.465v-.424h-.993v.338a.881.881 0 01-.058.338.608.608 0 01-.144.214.697.697 0 01-.415.145.503.503 0 01-.465-.204.899.899 0 01-.132-.508v-3.538c-.006-.196.036-.39.122-.567a.507.507 0 01.485-.229.527.527 0 01.443.214.806.806 0 01.164.509v.328h.982v-.387a1.788 1.788 0 00-.121-.664 1.562 1.562 0 00-.332-.534zM8.629 42.17a1.765 1.765 0 00-1.128-.418c-.202 0-.403.037-.592.107A1.559 1.559 0 006 42.7c-.1.231-.15.482-.145.735v3.638c-.007.256.043.51.144.745.09.196.221.37.385.509.152.14.33.25.524.32.19.07.39.106.592.107a1.714 1.714 0 001.128-.427c.158-.142.286-.315.374-.509.102-.234.151-.489.144-.745v-3.639a1.77 1.77 0 00-.144-.734 1.643 1.643 0 00-.374-.532zm-.463 4.904a.654.654 0 01-.197.527.727.727 0 01-.934 0 .652.652 0 01-.197-.527v-3.639a.654.654 0 01.197-.526.727.727 0 01.934 0 .651.651 0 01.197.526v3.64zM16.367 48.7v-6.89h-.953l-1.253 3.647h-.017l-1.263-3.646h-.943v6.888h.984v-4.19h.018l.963 2.962h.491l.972-2.962h.017v4.19h.984zM21.958 42.294c-.151-.17-.343-.3-.556-.377a2.184 2.184 0 00-.714-.107h-1.462v6.89h.981v-2.691h.506c.307.014.611-.051.886-.188a1.43 1.43 0 00.539-.527c.113-.183.19-.387.225-.6a4.9 4.9 0 00.053-.783c.01-.33-.023-.662-.096-.984a1.465 1.465 0 00-.362-.633zm-.506 2.1a.868.868 0 01-.091.359.552.552 0 01-.253.241 1.006 1.006 0 01-.463.087h-.448v-2.342h.506a.943.943 0 01.443.086.557.557 0 01.23.254c.054.121.083.252.086.384v.458c0 .16.01.326 0 .473h-.01zM26.608 41.81h-.805l-1.518 6.89h.982l.288-1.48h1.338l.289 1.48h.981l-1.555-6.89zm-.906 4.471l.483-2.497h.018l.48 2.497h-.981zM32.95 45.96h-.018l-1.483-4.15h-.943v6.89h.982v-4.143h.02l1.5 4.142h.923v-6.888h-.981v4.15zM38.948 41.81l-.79 2.74h-.02l-.79-2.74H36.31l1.349 3.978v2.911h.981v-2.911l1.348-3.977h-1.04zM0 50.645h.473v1.327h.321v-1.328h.47v-.272H0v.273zM3.977 50.372l-.62 1.6h.341l.132-.364h.637l.137.364h.35l-.636-1.6h-.341zm-.05.967l.217-.593.217.593h-.435zM7.908 51.382h.37v.206a.613.613 0 01-.38.135.404.404 0 01-.34-.153.669.669 0 01-.118-.417c0-.356.154-.534.46-.534a.337.337 0 01.362.255l.316-.062c-.068-.312-.293-.47-.678-.47a.804.804 0 00-.559.206.78.78 0 00-.23.615.873.873 0 00.205.6.776.776 0 00.607.235.96.96 0 00.678-.255v-.63h-.693v.27zM11.923 50.372h-.324v1.6h1.12V51.7h-.796v-1.328zM15.318 50.372h-.324v1.6h.324v-1.6zM18.637 51.44l-.656-1.068h-.313v1.6h.3v-1.045l.643 1.045h.322v-1.6h-.296v1.069zM21.637 51.267h.797v-.272h-.797v-.35h.857v-.273h-1.181v1.6h1.214V51.7h-.89v-.433zM28.912 51.003h-.63v-.63h-.321v1.599h.321v-.7h.63v.7h.322v-1.6h-.322v.631zM31.93 51.267h.8v-.272h-.8v-.35h.86v-.273H31.61v1.6h1.212V51.7h-.89v-.433zM36.023 51.268c.279-.044.42-.191.42-.445a.383.383 0 00-.157-.356.904.904 0 00-.468-.094h-.678v1.599h.322v-.669h.063a.432.432 0 01.2.036c.047.029.086.069.114.117l.349.508h.384l-.195-.312a1.114 1.114 0 00-.354-.384zm-.324-.222h-.237v-.401h.253a.84.84 0 01.326.038.21.21 0 01-.015.325.912.912 0 01-.327.038zM39.11 51.267h.796v-.272h-.797v-.35h.86v-.273h-1.183v1.6H40V51.7h-.89v-.433z"/></symbol>
<symbol id="logo3" viewBox="0 0 41 43"><path d="M6.345 41.795a.118.118 0 01.08.034l.206.216c-.16.174-.357.314-.579.409-.26.104-.539.154-.82.147a2.01 2.01 0 01-.772-.137 1.672 1.672 0 01-.957-.986 2.163 2.163 0 01-.13-.767 2.017 2.017 0 01.14-.77c.09-.222.226-.425.4-.597.175-.17.385-.302.617-.39.253-.094.523-.14.794-.137.253-.006.504.036.739.125.203.084.39.2.553.345l-.173.23a.173.173 0 01-.044.042.11.11 0 01-.069.018.157.157 0 01-.075-.025l-.092-.061-.129-.079a1.4 1.4 0 00-.406-.137 1.643 1.643 0 00-.306-.024 1.532 1.532 0 00-.571.102 1.29 1.29 0 00-.448.29c-.128.133-.227.29-.29.46-.073.195-.109.401-.106.608-.003.21.033.42.106.618.062.169.16.325.285.458.118.125.264.222.427.285.168.066.348.1.53.098.105.001.21-.005.314-.02.17-.02.332-.076.476-.164.072-.045.14-.096.203-.152a.153.153 0 01.097-.04zM12.287 40.71c.003.26-.044.52-.139.763a1.655 1.655 0 01-.387.592 1.754 1.754 0 01-.608.388 2.296 2.296 0 01-1.564 0 1.777 1.777 0 01-.604-.39 1.74 1.74 0 01-.391-.597 2.167 2.167 0 010-1.527c.087-.223.22-.427.39-.6a1.78 1.78 0 01.605-.375 2.258 2.258 0 011.564 0c.228.088.435.22.607.39.17.17.301.37.388.59.095.245.143.505.14.767zm-.54 0a1.759 1.759 0 00-.098-.612 1.208 1.208 0 00-.71-.747 1.658 1.658 0 00-1.137 0 1.208 1.208 0 00-.712.747c-.13.4-.13.827 0 1.226a1.203 1.203 0 00.712.745c.367.13.77.13 1.137 0 .166-.064.314-.162.435-.287.123-.134.217-.29.275-.458.07-.198.102-.405.098-.613zM16.34 41.353l.055.137c.02-.049.038-.093.059-.137a1.28 1.28 0 01.067-.135l1.314-2.276c.026-.04.05-.064.075-.071a.323.323 0 01.108-.012h.388v3.702h-.46V39.84v-.115a1.13 1.13 0 010-.128l-1.322 2.309a.202.202 0 01-.078.084.216.216 0 01-.113.03h-.074c-.04.001-.08-.01-.113-.03a.2.2 0 01-.077-.084l-1.361-2.324v2.973h-.445v-3.695h.388a.323.323 0 01.108.012.15.15 0 01.072.071l1.343 2.279a.812.812 0 01.067.132zM21.287 41.17v1.386h-.514V38.86h1.147a2.25 2.25 0 01.64.08c.167.045.321.124.453.23.114.1.202.225.257.363.06.151.09.312.088.473.002.162-.03.323-.096.473a1.013 1.013 0 01-.277.37 1.27 1.27 0 01-.456.245c-.2.061-.41.09-.62.086l-.622-.01zm0-.398h.623c.135.002.27-.017.398-.056a.843.843 0 00.288-.16.651.651 0 00.175-.244.768.768 0 00.062-.312.677.677 0 00-.052-.3.707.707 0 00-.18-.253 1.033 1.033 0 00-.691-.199h-.623v1.524zM28.201 42.561h-.406a.181.181 0 01-.114-.034.226.226 0 01-.067-.086l-.35-.894h-1.756l-.363.894a.2.2 0 01-.064.083.181.181 0 01-.116.037h-.406l1.543-3.703h.535l1.564 3.703zm-2.546-1.375h1.45l-.612-1.507a2.6 2.6 0 01-.116-.348l-.059.194a1.84 1.84 0 01-.056.157l-.607 1.504zM30.423 38.875c.031.017.058.04.078.067l2.25 2.79v-.129-2.745h.46v3.703h-.257a.23.23 0 01-.105-.022.283.283 0 01-.082-.069l-2.249-2.788c.003.042.003.085 0 .127v2.753h-.46v-3.704h.273c.032 0 .063.005.092.017zM37.003 41.088v1.47h-.515v-1.47l-1.422-2.23h.46a.173.173 0 01.111.032.314.314 0 01.07.084l.89 1.438c.035.061.066.118.092.172.026.053.046.105.064.156l.067-.159a1.3 1.3 0 01.088-.169l.877-1.448a.379.379 0 01.067-.079.161.161 0 01.11-.036h.466l-1.425 2.24zM16.086 32.644c.224.027.45.05.68.069 3.47-1.48 6.406-3.9 8.44-6.96 2.035-3.06 3.077-6.624 2.998-10.246l-3.825-3.644a20.22 20.22 0 01-1.05 11.512c-1.465 3.67-3.973 6.88-7.243 9.27z"/><path d="M14.72 32.475l.103.02c3.494-2.382 6.159-5.707 7.648-9.546a19.54 19.54 0 00.707-11.99L17.73 5.77a24.082 24.082 0 012.558 13.768c-.533 4.728-2.464 9.214-5.568 12.938zM33.196 19.786c-.925 3.98-3.173 7.568-6.41 10.234a20.218 20.218 0 01-3.045 2.082 18.187 18.187 0 007.08-3.813 17.085 17.085 0 004.585-6.4l-2.21-2.103z"/><path d="M32.33 19.2l-3.146-2.997a18.474 18.474 0 01-2.953 9.67c-1.873 2.915-4.532 5.299-7.699 6.903h.016c.706 0 1.41-.04 2.112-.12a19.338 19.338 0 007.61-5.33 18.092 18.092 0 004.06-8.126zM15.176 3.58L11.423 0c-3.355 1.235-6.24 3.406-8.278 6.23C1.107 9.053.01 12.397 0 15.823c.013 3.787 1.35 7.46 3.801 10.441 2.451 2.98 5.875 5.097 9.731 6.015 3.442-3.995 5.457-8.932 5.753-14.093.295-5.161-1.144-10.277-4.11-14.606zM41 18.649c-.014-4.492-1.893-8.797-5.227-11.973-3.334-3.177-7.852-4.967-12.567-4.98-2.179-.002-4.34.381-6.371 1.13l22.977 21.89A16.072 16.072 0 0041 18.65z"/></symbol>
<symbol id="logo4" viewBox="0 0 80 43"><path d="M12.402 12.83h-.003c-2.262 0-4.096 1.788-4.096 3.992v.003c0 2.204 1.834 3.992 4.096 3.992h.003c2.262 0 4.096-1.788 4.096-3.992v-.003c0-2.204-1.834-3.991-4.096-3.991zM42.637 11.555c-.007-3.063-1.258-5.997-3.48-8.163C36.938 1.227 33.926.007 30.784 0c-3.143.006-6.156 1.225-8.379 3.39-2.223 2.166-3.474 5.102-3.48 8.165V28.44s23.71-2.573 23.713-16.883v-.002zM0 33.982a7.96 7.96 0 002.422 5.68 8.384 8.384 0 005.827 2.362 8.384 8.384 0 005.826-2.361 7.96 7.96 0 002.423-5.678v-11.75S0 24.029 0 33.983zm8.25 2.105a2.2 2.2 0 01-1.201-.354 2.117 2.117 0 01-.796-.945 2.055 2.055 0 01-.123-1.216c.084-.409.29-.784.592-1.078a2.178 2.178 0 011.106-.576c.419-.082.853-.04 1.248.12.395.159.732.429.97.775a2.068 2.068 0 01.201 1.977c-.108.257-.267.49-.467.686-.201.196-.44.352-.702.458a2.21 2.21 0 01-.829.161v-.008zM25.09 34.781h-1.688v1.743h-.88V32.26H25.3v.712h-1.898v1.101h1.687v.71zm4.224-.293c0 .42-.075.788-.223 1.105-.148.316-.361.56-.639.732a1.755 1.755 0 01-.949.258c-.353 0-.669-.085-.946-.255a1.695 1.695 0 01-.645-.726 2.511 2.511 0 01-.231-1.09V34.3c0-.42.075-.79.226-1.108.152-.32.366-.565.641-.735.277-.172.594-.258.95-.258.355 0 .67.086.946.258.277.17.49.415.641.735.152.319.229.687.229 1.105v.19zm-.89-.193c0-.447-.081-.787-.241-1.02a.783.783 0 00-.686-.348.782.782 0 00-.682.346c-.16.228-.242.564-.244 1.007v.208c0 .436.08.774.24 1.014.16.24.391.36.692.36a.775.775 0 00.68-.345c.158-.233.238-.57.24-1.014v-.208zm3.74 1.11a.447.447 0 00-.176-.38c-.117-.09-.328-.184-.632-.282a4.565 4.565 0 01-.724-.293c-.484-.262-.727-.614-.727-1.057 0-.23.065-.436.194-.616.13-.181.317-.323.56-.425.244-.101.517-.152.82-.152.304 0 .576.056.814.167.239.11.423.265.554.466.133.201.2.43.2.686h-.88c0-.196-.061-.347-.184-.454-.123-.11-.296-.165-.519-.165-.215 0-.382.046-.5.138a.426.426 0 00-.18.358c0 .138.07.254.208.348.141.094.347.182.619.264.5.15.864.337 1.092.56.229.222.343.5.343.831 0 .37-.14.66-.419.87-.28.21-.655.314-1.128.314-.328 0-.627-.06-.896-.179a1.438 1.438 0 01-.618-.495 1.27 1.27 0 01-.211-.726h.881c0 .47.282.706.844.706.21 0 .372-.042.49-.126a.418.418 0 00.175-.358zm4.69-2.434h-1.306v3.553h-.879v-3.553H33.38v-.712h3.475v.712zm3.071 1.705h-1.688v1.142h1.981v.706h-2.86V32.26h2.854v.712h-1.975v1.016h1.688v.689zm2.388.287h-.7v1.561h-.88V32.26h1.586c.503 0 .892.112 1.166.337.273.224.41.542.41.952 0 .29-.064.534-.19.73a1.282 1.282 0 01-.572.462l.923 1.743v.041h-.944l-.8-1.561zm-.7-.712h.709c.22 0 .391-.056.512-.167a.607.607 0 00.182-.466c0-.201-.058-.36-.173-.474-.113-.116-.288-.173-.524-.173h-.707v1.28zm5.326.77v1.503h-.88V32.26h1.665c.32 0 .601.058.844.176.244.117.431.284.562.5.131.215.196.46.196.736 0 .418-.143.748-.43.99-.285.24-.68.36-1.187.36h-.77zm0-.711h.785c.232 0 .409-.055.53-.165.123-.109.185-.265.185-.468a.704.704 0 00-.185-.507c-.123-.129-.293-.195-.51-.2h-.805v1.34zm5.56.366h-1.687v1.142h1.98v.706h-2.86V32.26h2.854v.712h-1.974v1.016h1.687v.689zm4.078-1.705h-1.306v3.553h-.88v-3.553h-1.288v-.712h3.474v.712zm3.07 1.705H57.96v1.142h1.98v.706h-2.859V32.26h2.854v.712H57.96v1.016h1.688v.689zm2.388.287h-.7v1.561h-.879V32.26h1.585c.504 0 .893.112 1.166.337.274.224.41.542.41.952 0 .29-.063.534-.19.73a1.283 1.283 0 01-.571.462l.922 1.743v.041h-.943l-.8-1.561zm-.7-.712h.71c.22 0 .39-.056.512-.167a.607.607 0 00.181-.466c0-.201-.057-.36-.172-.474-.114-.116-.288-.173-.525-.173h-.706v1.28zm5.165 1.154a.447.447 0 00-.176-.38c-.117-.09-.328-.184-.632-.282a4.56 4.56 0 01-.724-.293c-.484-.262-.727-.614-.727-1.057 0-.23.065-.436.194-.616.13-.181.317-.323.56-.425.243-.101.517-.152.82-.152.304 0 .576.056.814.167.238.11.423.265.554.466.133.201.199.43.199.686h-.879c0-.196-.061-.347-.184-.454-.124-.11-.296-.165-.519-.165-.215 0-.382.046-.501.138a.426.426 0 00-.179.358c0 .138.07.254.208.348.141.094.347.182.618.264.5.15.865.337 1.093.56.229.222.343.5.343.831 0 .37-.14.66-.419.87-.28.21-.655.314-1.128.314-.328 0-.627-.06-.896-.179a1.439 1.439 0 01-.618-.495 1.27 1.27 0 01-.211-.726h.881c0 .47.282.706.844.706.21 0 .372-.042.49-.126a.418.418 0 00.175-.358z"/></symbol>
<symbol id="logo5" viewBox="0 0 59 47"><path d="M4.488 39.278c.23.285.352.643.346 1.01a1.604 1.604 0 01-.536 1.277c-.447.339-1 .504-1.559.466H0v-6.405h2.683a2.284 2.284 0 011.487.426 1.464 1.464 0 01.52 1.198c.016.353-.095.7-.311.98-.209.254-.496.43-.817.5.363.067.692.26.926.548zm-3.213-.967H2.42c.261.02.52-.056.73-.213a.761.761 0 00.246-.626.788.788 0 00-.243-.625 1.106 1.106 0 00-.751-.216H1.275v1.68zm1.988 2.456a.796.796 0 00.271-.65.81.81 0 00-.277-.658 1.18 1.18 0 00-.78-.231H1.276v1.761h1.218c.274.016.546-.062.77-.222zM9.973 42.031L8.48 39.528h-.561v2.503H6.635v-6.405h2.43a2.39 2.39 0 011.693.545 2.047 2.047 0 01.18 2.65c-.3.345-.709.575-1.159.65l1.59 2.56H9.973zm-2.054-3.376h1.05c.73 0 1.094-.323 1.094-.97a.956.956 0 00-.268-.72 1.135 1.135 0 00-.826-.26H7.906l.013 1.95zM16.99 40.742h-2.558l-.452 1.29h-1.346l2.35-6.334h1.455l2.34 6.333h-1.346l-.442-1.289zm-.342-.97l-.935-2.703-.935 2.703h1.87zM25.776 42.031H24.5l-2.858-4.355v4.355h-1.271v-6.405h1.271l2.858 4.38v-4.38h1.275v6.405zM33.05 40.498a2.757 2.757 0 01-1.153 1.13c-.555.281-1.171.42-1.792.403h-2.27v-6.405h2.27a3.816 3.816 0 011.791.395c.488.246.89.636 1.154 1.117a3.736 3.736 0 010 3.36zm-1.459-.153a2.352 2.352 0 000-3.057 2.21 2.21 0 00-1.596-.545h-.885v4.146h.886a2.21 2.21 0 001.595-.544zM17.788 0S34.24 6.236 33.892 15.26v15.263s-16.44-6.24-16.096-15.263L17.788 0zM48.547 26.95A22.486 22.486 0 0159 23.082v-4.778a21.467 21.467 0 00-10.453 8.646z"/><path d="M46.68 28.389A22.382 22.382 0 0159 17.303V3.536s-23.43 8.883-22.934 21.733V47s1.044-.397 2.687-1.142c0-.695 0-1.395.074-2.1a22.606 22.606 0 017.854-15.369z"/><path d="M44.453 36.462c.123-1.507.397-2.998.82-4.45a21.04 21.04 0 00-4.962 13.126 68.028 68.028 0 004.506-2.384 22.573 22.573 0 01-.364-6.292zM45.384 36.54a21.58 21.58 0 00.29 5.698c6.401-3.846 13.594-9.788 13.317-16.968v-.626a20.972 20.972 0 00-12.18 5.713 21.492 21.492 0 00-1.427 6.183z"/></symbol>
<symbol id="logo6" viewBox="0 0 89 46"><path d="M44.74 21.353a3.258 3.258 0 01-.57-2.057v-2.982c0-.915.19-1.61.567-2.085.378-.475 1.028-.712 1.949-.71.865 0 1.48.202 1.843.607.396.516.589 1.147.545 1.784v.7h-1.548v-.71a3.961 3.961 0 00-.045-.694.689.689 0 00-.221-.413.836.836 0 00-.561-.16.886.886 0 00-.59.17.81.81 0 00-.256.455c-.045.243-.065.49-.061.737v3.62a2 2 0 00.198 1.016.735.735 0 00.31.247.78.78 0 00.399.057.788.788 0 00.548-.164.747.747 0 00.23-.44c.037-.24.053-.483.049-.725v-.735h1.548v.67a2.914 2.914 0 01-.536 1.876c-.355.443-.961.664-1.852.664-.891 0-1.564-.236-1.946-.728zM51.186 21.384c-.391-.465-.587-1.141-.587-2.036V16.21c0-.886.196-1.556.587-2.011.39-.455 1.044-.682 1.961-.68.91 0 1.56.227 1.952.68.39.455.59 1.125.59 2.011v3.138c0 .886-.2 1.565-.596 2.033-.398.467-1.045.7-1.946.7-.9 0-1.567-.236-1.961-.697zm2.682-.753c.14-.29.204-.61.186-.928v-3.841a1.843 1.843 0 00-.183-.91.738.738 0 00-.316-.25.785.785 0 00-.408-.054.794.794 0 00-.41.054.749.749 0 00-.317.25c-.141.283-.205.596-.186.91v3.859c-.02.32.044.638.186.928a.96.96 0 00.326.23 1.009 1.009 0 00.796 0 .96.96 0 00.326-.23v-.018zM57.55 13.61h1.667l1.253 5.79 1.282-5.79h1.622l.163 8.356H62.34l-.128-5.807-1.238 5.807h-.961l-1.282-5.828-.119 5.828H57.4l.15-8.355zM65.406 13.61h2.596c1.495 0 2.243.791 2.243 2.373 0 1.515-.787 2.271-2.362 2.27H67v3.713h-1.603l.01-8.355zm2.218 3.571c.158.02.319.006.47-.04.153-.045.293-.122.411-.223.184-.283.265-.614.23-.944a2.854 2.854 0 00-.076-.758.63.63 0 00-.118-.23.67.67 0 00-.203-.168 1.528 1.528 0 00-.714-.133h-.622v2.496h.622zM72.556 13.61h1.721l1.766 8.356h-1.494l-.349-1.927h-1.535l-.359 1.927H70.79l1.766-8.355zm1.471 5.462l-.6-3.508-.599 3.508h1.2zM77.47 13.61h1.12l2.148 4.767V13.61h1.33v8.355h-1.067l-2.16-4.976v4.976h-1.375l.003-8.355zM85.183 18.78l-1.785-5.158h1.503l1.09 3.313 1.022-3.313h1.471l-1.762 5.158v3.186h-1.539V18.78zM47.215 25.619v.437h-1.308v3.395h-.548v-3.395h-1.314v-.437h3.17zM51.314 29.451h-.423a.176.176 0 01-.119-.036.196.196 0 01-.07-.088l-.378-.91H48.51l-.379.91a.257.257 0 01-.057.103.183.183 0 01-.119.036h-.423l1.603-3.832h.557l1.622 3.817zm-2.654-1.423h1.513l-.641-1.56a2.964 2.964 0 01-.119-.36l-.06.203-.058.16-.635 1.557zM54.077 29.075c.1.005.2.005.3 0 .087-.009.173-.024.257-.046a1.82 1.82 0 00.23-.07c.071-.027.142-.06.216-.093v-.862h-.641a.12.12 0 01-.087-.03.084.084 0 01-.032-.07v-.295h1.244v1.469a2.355 2.355 0 01-.677.312 2.653 2.653 0 01-.4.08 4.455 4.455 0 01-.468.024 2.252 2.252 0 01-.808-.143 1.935 1.935 0 01-.64-.4 1.849 1.849 0 01-.414-.607 2.074 2.074 0 01-.148-.795 2.155 2.155 0 01.145-.802c.092-.227.232-.433.413-.606.183-.173.401-.308.641-.398.274-.098.566-.146.859-.142.15 0 .298.01.445.033.13.02.258.052.382.097.112.04.22.09.32.152.099.06.192.127.28.2l-.155.237a.14.14 0 01-.052.052.15.15 0 01-.073.02.196.196 0 01-.1-.03 1.906 1.906 0 01-.156-.09 1.369 1.369 0 00-.215-.104 1.869 1.869 0 00-.295-.085 2.256 2.256 0 00-.407-.033 1.743 1.743 0 00-.618.106c-.179.068-.34.171-.471.303-.133.138-.235.3-.298.477a1.953 1.953 0 000 1.277c.07.18.179.345.32.482.132.132.291.235.468.304.204.066.42.092.635.076zM59.185 29.014h1.75v.437H58.65v-3.832h.548l-.013 3.395zM62.755 29.45h-.548V25.62h.548v3.832zM64.794 25.637a.27.27 0 01.083.07l2.343 2.889a.972.972 0 010-.137v-2.855h.477v3.847h-.275a.24.24 0 01-.119-.021.314.314 0 01-.086-.073l-2.34-2.885v2.979h-.458V25.62h.285c.031 0 .062.006.09.018zM71.732 25.619v.422H69.79v1.265h1.574v.406H69.79v1.308h1.942v.422h-2.506v-3.823h2.506zM14.303 1.954l24.335 6.541v22.922L14.305 24.88V1.954zM12.743 0v25.992l27.453 7.382V7.384L12.743 0z"/><path d="M27.456 45.44L0 38.052v-25.99l27.456 7.385V45.44z"/><path d="M13.198 1.66l24.017 6.459-10.214 9.672-24.02-6.462 10.217-9.67zM12.743 0L0 12.063l27.456 7.385 12.74-12.063L12.743 0zM29.001 43.978l11.195-10.6-11.195-3.013v13.613z"/></symbol>
<symbol id="close" viewBox="0 0 18 18"><path d="M15 4.10786L13.8921 3L9.5 7.39214L5.10786 3L4 4.10786L8.39214 8.5L4 12.8921L5.10786 14L9.5 9.60786L13.8921 14L15 12.8921L10.6079 8.5L15 4.10786Z"/></symbol>
<symbol id="send" viewBox="0 0 24 24"><path d="M24 0L0 13.5L7.66994 16.3407L19.5 5.25002L10.5017 17.3896L10.509 17.3923L10.5 17.3896V24.0001L14.8013 18.982L20.2501 21.0001L24 0Z" fill="white"/></symbol>
<symbol id="icon-vector" viewBox="0 0 34 32"><path d="M30.351 3.552v24.896h-26.557v-24.896h26.557zM30.351-0.006h-26.557c-2.087 0-3.794 1.601-3.794 3.558v24.896c0 1.957 1.707 3.558 3.794 3.558h26.557c2.087 0 3.794-1.601 3.794-3.558v-24.896c0-1.957-1.707-3.558-3.794-3.558z"></path></symbol>
<symbol id="icon-email" viewBox="0 0 32 32"><path d="M26.671 5.334h-21.337c-1.467 0-2.653 1.2-2.653 2.667l-0.014 16.003c0 1.467 1.2 2.667 2.667 2.667h21.337c1.467 0 2.667-1.2 2.667-2.667v-16.003c0-1.467-1.2-2.667-2.667-2.667zM26.137 11.003l-9.427 5.893c-0.201 0.126-0.446 0.2-0.708 0.2s-0.506-0.075-0.713-0.204l0.006 0.003-9.427-5.893c-0.336-0.201-0.557-0.562-0.557-0.975 0-0.626 0.507-1.133 1.133-1.133 0.233 0 0.449 0.070 0.629 0.19l-0.004-0.003 8.935 5.587 8.935-5.588c0.176-0.118 0.392-0.188 0.625-0.188 0.626 0 1.133 0.507 1.133 1.133 0 0.413-0.221 0.775-0.552 0.973l-0.005 0.003z"></path></symbol>
<symbol id="icon-phone" viewBox="0 0 32 32"><path d="M24.886 19.777l-3.268-0.373c-0.090-0.011-0.194-0.018-0.3-0.018-0.707 0-1.347 0.287-1.811 0.75l-2.368 2.368c-3.67-1.894-6.586-4.811-8.429-8.373l-0.051-0.108 2.383-2.377c0.463-0.463 0.75-1.104 0.75-1.811 0-0.106-0.006-0.21-0.019-0.312l0.001 0.012-0.373-3.243c-0.155-1.288-1.241-2.276-2.557-2.276-0.001 0-0.002 0-0.003 0h-2.226c-1.454 0-2.664 1.209-2.575 2.662 0.683 10.988 9.472 19.765 20.448 20.448 1.453 0.089 2.664-1.12 2.664-2.575v-2.226c0-0.004 0-0.008 0-0.012 0-1.308-0.985-2.386-2.253-2.533l-0.012-0.001z"></path></symbol>
<symbol id="icon-person" viewBox="0 0 32 32"><path d="M16.003 16.003c2.946 0 5.334-2.388 5.334-5.334s-2.388-5.334-5.334-5.334v0c-2.946 0-5.334 2.388-5.334 5.334s2.388 5.334 5.334 5.334v0zM16.003 18.67c-3.561 0-10.668 1.787-10.668 5.334v1.334c0 0.733 0.599 1.334 1.334 1.334h18.67c0.733 0 1.334-0.601 1.334-1.334v-1.334c0-3.547-7.109-5.334-10.668-5.334z"></path></symbol>
</defs></svg>